Coordinates
version=1
nRows=16
nColumns=36
inDegrees=yes

Units are S.I. units (second, meters, Newtons, ...)
If the header above contains a line with 'inDegrees', this indicates whether rotational values are in degrees (yes) or radians (no).

endheader
time	pelvis_tilt	pelvis_list	pelvis_rotation	pelvis_tx	pelvis_ty	pelvis_tz	hip_flexion_r	hip_adduction_r	hip_rotation_r	knee_angle_r	knee_angle_r_beta	ankle_angle_r	subtalar_angle_r	mtp_angle_r	hip_flexion_l	hip_adduction_l	hip_rotation_l	knee_angle_l	knee_angle_l_beta	ankle_angle_l	subtalar_angle_l	mtp_angle_l	lumbar_extension	lumbar_bending	lumbar_rotation	arm_flex_r	arm_add_r	arm_rot_r	elbow_flex_r	pro_sup_r	arm_flex_l	arm_add_l	arm_rot_l	elbow_flex_l	pro_sup_l
      1.90000000	     -6.71808026	     -4.27210099	      0.10240831	      0.30696825	      1.00139717	     -0.11759808	     36.45726032	      1.55403065	     -3.46814197	     16.08529534	      0.28074136	     -3.76276989	      1.36224389	     -7.49999852	     10.79893971	      0.71250400	     -3.80530494	      7.20689559	      0.12578406	      5.52825068	     -2.94572759	     -7.49999852	    -11.45926816	     -2.63061763	     -2.73407118	     38.23564931	     -8.34531113	     51.91384636	    142.10201575	     88.28163284	     31.35583995	    -31.86346605	     51.94672790	    141.14620401	     84.08377698
      1.91666670	     -6.84456966	     -5.02625470	     -0.41302215	      0.30768612	      1.00152672	     -0.11707399	     36.20643288	      2.64173309	     -3.01211362	     17.35421024	      0.30288811	     -3.40741156	     -0.46494425	     -7.49999856	     10.04847215	      0.02740752	     -4.28169529	      5.75720845	      0.10048224	      5.06960123	     -2.55082012	     -7.49999856	    -10.26861534	     -1.89750372	     -2.61482262	     36.73923312	     -8.73060496	     50.58747192	    142.57221040	     88.22961138	     29.63014858	    -31.44067678	     51.58313529	    141.93727916	     84.39460033
      1.93333330	     -6.99941433	     -5.94789998	     -0.84254870	      0.31387819	      1.00209251	     -0.11194888	     35.72419613	      3.89018092	     -2.45974424	     18.82321748	      0.32852712	     -2.74184510	     -2.24527573	     -7.49999859	      9.16420874	     -0.91304792	     -4.46891465	      4.21298443	      0.07353045	      4.60438528	     -1.94844865	     -7.49999859	     -8.82162227	     -1.00298060	     -2.47047658	     34.86815387	     -8.98467532	     49.24369381	    142.82921987	     88.11479897	     27.59519538	    -31.53629857	     50.78975072	    141.83525575	     84.74208413
      1.95000000	     -7.22880752	     -6.54724286	     -1.07267437	      0.32155609	      1.00229943	     -0.11353756	     35.32059044	      4.61613106	     -2.14432285	     20.11943665	      0.35115041	     -2.01977874	     -3.20694598	     -7.49999870	      8.38762779	     -1.44767841	     -4.08397352	      2.79243344	      0.04873716	      4.33392859	     -1.58972391	     -7.49999870	     -7.12622390	     -0.36329427	     -2.48522104	     32.67844409	     -9.62124615	     48.87622722	    143.44544425	     86.82509149	     25.73798275	    -31.69385300	     50.37438787	    141.63860259	     83.72335991
      1.96666670	     -7.03532004	     -7.06072753	     -1.15675676	      0.32144134	      1.00254777	     -0.11453406	     34.24524827	      5.20140671	     -1.44416631	     21.47286493	      0.37477219	     -1.11583234	     -4.27676350	     -7.49999871	      7.67023487	     -1.96201110	     -3.51640582	      2.36716575	      0.04131484	      4.59534879	     -1.22600172	     -7.49999871	     -6.25491221	      0.12257345	     -2.55313484	     31.47187602	    -10.07582238	     48.80669721	    143.81880578	     86.84222959	     24.67260008	    -31.89409246	     50.08241868	    140.91683969	     83.84513982
      1.98333330	     -6.79947277	     -7.22354827	     -1.39658032	      0.32257809	      1.00589596	     -0.11388483	     32.88626309	      5.60515413	     -0.23103775	     21.94342025	      0.38298493	     -0.81478918	     -5.79737360	     -7.49999874	      7.19381996	     -2.13570099	     -3.22330968	      2.32648939	      0.04060490	      4.98834392	     -0.97724305	     -7.49999874	     -5.54854536	      0.11536248	     -2.13485980	     29.90581042	    -10.57679302	     48.06486682	    144.30374587	     86.88510573	     23.31030256	    -31.97812755	     48.55303881	    139.28799563	     84.24249764
      2.00000000	     -6.40458528	     -7.42114189	     -1.37119302	      0.32853401	      1.00995723	     -0.10863416	     30.68560030	      5.93747867	      0.51628416	     21.40016200	      0.37350329	     -0.25878311	     -6.53813044	     -7.49999876	      6.42779224	     -2.36569344	     -2.80440368	      2.14908419	      0.03750860	      5.36621602	     -0.76900123	     -7.49999876	     -5.00334708	      0.09943960	     -2.07543516	     28.53820507	    -11.04843569	     47.83084118	    144.35811695	     86.92778800	     22.41928113	    -32.40189120	     47.84868492	    138.34623441	     84.45220601
      2.01666670	     -5.96278269	     -7.42511976	     -1.51539730	      0.32906175	      1.00964178	     -0.10798162	     28.46446818	      6.11292812	      1.26415226	     20.61671201	      0.35982951	      0.00110303	     -7.19545913	     -7.49999879	      5.75742288	     -2.41662131	     -2.52335126	      2.15153386	      0.03755135	      5.83712067	     -0.50224934	     -7.49999879	     -4.72175757	     -0.15932418	     -1.75331656	     27.98788564	    -11.37478888	     47.77184144	    144.67059953	     87.03111850	     22.06528608	    -32.53570615	     46.91687409	    137.62418785	     84.63565062
      2.03333330	     -5.80679147	     -7.14706924	     -1.67287628	      0.32898273	      1.00519381	     -0.10868370	     26.99477437	      5.87962790	      1.84026005	     20.27737964	      0.35390704	      0.47307439	     -7.56290362	     -7.49999886	      5.64667620	     -2.13972302	     -2.24725254	      2.50060794	      0.04364384	      6.29894512	     -0.61884436	     -7.49999886	     -4.16654436	     -0.62579026	     -1.74639363	     27.70898644	    -11.63186735	     47.34367822	    145.01851479	     86.09601663	     22.16432409	    -32.29416399	     46.51849596	    138.48517656	     83.86077038
      2.05000000	     -5.53407188	     -6.83185560	     -1.85356062	      0.32917806	      1.00249619	     -0.10766071	     25.51854090	      5.64583047	      2.37423487	     19.82129081	      0.34594679	      1.01155348	     -8.05161210	     -7.49999906	      5.48792569	     -1.84261312	     -2.34600021	      2.95372355	      0.05155220	      6.74771168	     -0.54647159	     -7.49999906	     -3.83006444	     -1.17375791	     -1.37812017	     27.37724406	    -11.86139889	     46.20260386	    145.28805703	     86.92416130	     22.92782806	    -31.97448442	     47.08656689	    139.59572154	     85.36856082
      2.06666670	     -5.47447096	     -6.42449936	     -2.02635306	      0.32900864	      1.00214462	     -0.10807696	     24.50410472	      5.23415253	      2.64976824	     19.44489013	      0.33937736	      1.74719595	     -8.21304918	     -7.49999907	      5.49835626	     -1.42801917	     -2.36596105	      3.45769220	      0.06034811	      7.21919479	     -0.45213468	     -7.49999907	     -3.43030831	     -1.68362127	     -1.21813501	     27.34257063	    -12.05116988	     45.95705204	    145.31588196	     86.91405501	     22.92732802	    -32.01057467	     47.26991261	    140.67497164	     85.42617914
      2.08333330	     -5.36451834	     -6.06120360	     -2.28103251	      0.33623127	      1.00221115	     -0.10885723	     23.43555492	      4.86020196	      2.82189906	     18.91204631	      0.33007748	      2.44780689	     -8.39904579	     -7.49999907	      5.46551452	     -1.03297647	     -2.39131403	      3.98814580	      0.06960628	      7.44337434	     -0.54390229	     -7.49999907	     -2.87949451	     -2.10121611	     -0.94172918	     26.88180428	    -12.00501599	     45.98052825	    145.30405549	     86.91099353	     22.42090144	    -31.98440255	     47.40385641	    140.94950113	     85.44077735
      2.10000000	     -5.41646351	     -5.64131825	     -2.70606062	      0.33646488	      1.00167702	     -0.10882687	     22.77840809	      4.46012744	      2.97030789	     18.75164097	      0.32727788	      3.04022994	     -8.27619536	     -7.49999909	      5.75840515	     -0.64677176	     -2.61610167	      4.77052316	      0.08326134	      8.24548104	     -0.29202174	     -7.49999909	     -2.43566814	     -2.64048424	     -0.48326747	     25.92150176	    -12.05734306	     45.92679952	    145.57791156	     86.95109230	     21.33251676	    -31.93034078	     47.46838733	    141.73842150	     85.49288033
      2.11666670	     -5.65916225	     -5.13380463	     -2.97015078	      0.33731170	      1.00075201	     -0.10767028	     22.20809806	      3.93346710	      2.98714507	     18.30493495	      0.31948138	      3.42496434	     -7.96551918	     -7.49999940	      6.32738817	     -0.15290027	     -3.00358892	      5.36379529	      0.09361589	      8.77951054	     -0.00185251	     -7.49999940	     -1.86603157	     -3.23033659	     -0.31300380	     25.40544659	    -12.09898801	     46.42664198	    145.60323182	     87.24757720	     19.53523077	    -32.39133886	     47.04924096	    141.12285798	     85.82636209
      2.13333330	     -6.04306886	     -4.61318583	     -3.20225545	      0.33746371	      0.99941653	     -0.10757188	     21.69557718	      3.32241478	      2.74697737	     17.81800185	      0.31098280	      3.77493762	     -7.40014249	     -7.49999941	      7.06370664	      0.34847368	     -3.33441284	      5.94968998	      0.10384168	      9.16847267	      0.36728577	     -7.49999941	     -1.09195574	     -3.83273261	      0.18472479	     24.95052991	    -12.18440589	     46.80081013	    145.85142523	     87.43407142	     18.26026814	    -32.73982931	     47.27780900	    140.69410915	     85.85458581
      2.15000000	     -6.38554179	     -4.06779490	     -3.38515187	      0.33877613	      1.00094728	     -0.10632096	     21.11242821	      2.68126938	      2.47591627	     17.37953607	      0.30333013	      3.91345315	     -6.92599537	     -7.49999942	      7.67187659	      0.84750310	     -3.69738888	      6.35872780	      0.11098074	      9.25193091	      0.74501403	     -7.49999942	     -0.40338203	     -4.61294906	      0.75152898	     24.49070374	    -12.26018474	     46.91898617	    145.62873133	     87.57586012	     17.20224883	    -33.01936751	     47.20191469	    140.07105846	     85.85249861
